<svg id="color" enable-background="new 0 0 24 24" height="512" viewBox="0 0 24 24" width="512" xmlns="http://www.w3.org/2000/svg"><path d="m20 17.25h-3.17c-.552 0-1-.448-1-1s.448-1 1-1h3.17c.54 0 1.039-.206 1.407-.581.387-.38.593-.879.593-1.419 0-1.103-.897-2-2-2h-2c-.552 0-1-.448-1-1s.448-1 1-1h2c2.206 0 4 1.794 4 4 0 1.081-.419 2.086-1.179 2.834-.735.747-1.74 1.166-2.821 1.166z" fill="#ffb300"/><path d="m24 13.25h-2c0 .54-.206 1.039-.593 1.419-.368.375-.867.581-1.407.581h-3.17c-.552 0-1 .448-1 1s.448 1 1 1h3.17c1.081 0 2.086-.419 2.821-1.166.76-.748 1.179-1.753 1.179-2.834z" fill="#de9c00"/><path d="m7.757 6c-.21 0-.418-.087-.567-.258-.271-.313-.238-.787.075-1.058.168-.146.25-.329.232-.517-.018-.203-.155-.392-.372-.518-.644-.372-1.05-.982-1.116-1.674-.064-.673.206-1.326.742-1.791.313-.273.786-.24 1.059.074.271.313.238.787-.075 1.058-.168.146-.25.329-.232.517.019.203.155.392.373.518.643.372 1.049.982 1.115 1.674.064.673-.206 1.326-.742 1.792-.143.122-.317.183-.492.183z" fill="#795548"/><path d="m12.757 6c-.21 0-.418-.087-.567-.258-.271-.313-.238-.787.075-1.058.168-.146.25-.329.232-.517-.019-.203-.155-.392-.373-.518-.643-.372-1.049-.982-1.115-1.674-.064-.673.206-1.326.742-1.792.313-.272.786-.239 1.058.075.271.313.238.787-.075 1.058-.168.146-.25.329-.232.517.019.203.155.392.373.518.643.372 1.049.982 1.115 1.674.064.673-.206 1.326-.742 1.792-.142.122-.316.183-.491.183z" fill="#795548"/><path d="m13.25 4.22c0 .37-.16.74-.49 1.03l-.57.49c-.27-.31-.24-.78.08-1.06.16-.14.25-.33.23-.51-.02-.21-.16-.39-.38-.52-.64-.37-1.04-.98-1.11-1.67-.07-.68.21-1.33.74-1.8.31-.27.79-.24 1.06.08l-.57.49c-.75.65-.62 1.74.26 2.25.49.29.75.75.75 1.22z" fill="#694a3f"/><path d="m10 21c-4.962 0-9-4.038-9-9v-3.75c0-.414.336-.75.75-.75h16.5c.414 0 .75.336.75.75v3.75c0 1.632-.441 3.235-1.276 4.634l-.07.099c-1.628 2.635-4.55 4.267-7.654 4.267z" fill="#ffc107"/><path d="m17.25 24h-14.5c-1.517 0-2.75-1.233-2.75-2.75v-1c0-.414.336-.75.75-.75h18.5c.414 0 .75.336.75.75v1c0 1.517-1.233 2.75-2.75 2.75z" fill="#ffe082"/><path d="m10 7.5h-8.25c-.414 0-.75.336-.75.75v3.75c0 3.127 1.603 5.886 4.03 7.5h4.97z" fill="#dea806"/><path d="m10 19.5h-4.97-4.28c-.414 0-.75.336-.75.75v1c0 1.517 1.233 2.75 2.75 2.75h7.25z" fill="#dec371"/><path d="m8.25 4.22c0 .37-.16.74-.49 1.03l-.57.49c-.27-.31-.24-.78.08-1.06.16-.14.25-.33.23-.51-.02-.21-.16-.39-.38-.52-.64-.37-1.04-.98-1.11-1.67-.07-.68.21-1.33.74-1.8.31-.27.79-.24 1.06.08l-.57.49c-.75.65-.62 1.74.26 2.25.49.29.75.75.75 1.22z" fill="#694a3f"/></svg>