<svg height="512pt" viewBox="0 0 512 512" width="512pt" xmlns="http://www.w3.org/2000/svg"><path d="m456.1875 171.941406c-40.65625-28.089844-117.363281-45.542968-200.1875-45.542968s-159.53125 17.453124-200.1875 45.542968c-5.132812 3.542969-11.921875 3.546875-17.050781 0-15.90625-10.988281-38.761719-31.515625-38.761719-60.542968 0-32.28125 28.429688-61.429688 80.050781-82.078126 47.269531-18.90625 109.757813-29.320312 175.949219-29.320312s128.679688 10.414062 175.949219 29.320312c51.621093 20.648438 80.050781 49.796876 80.050781 82.078126 0 29-22.808594 49.523437-38.761719 60.542968-4.761719 3.289063-11.5625 3.789063-17.050781 0zm40.804688-59.921875h.011718zm0 0" fill="#66c4ff"/><g fill="#009cff"><path d="m456.1875 171.941406c5.488281 3.792969 12.289062 3.289063 17.050781 0 15.953125-11.019531 38.761719-31.542968 38.761719-60.542968 0-32.28125-28.429688-61.429688-80.050781-82.078126-47.269531-18.90625-109.757813-29.320312-175.949219-29.320312v126.398438c82.824219 0 159.53125 17.453124 200.1875 45.542968zm0 0"/><path d="m95.332031 150.964844c-8.28125 0-15-6.714844-15-15v-96.398438c0-8.285156 6.71875-15 15-15 8.285157 0 15 6.714844 15 15v96.398438c0 8.285156-6.714843 15-15 15zm0 0"/><path d="m175.667969 131.886719c-8.285157 0-15-6.714844-15-15v-96.398438c0-8.285156 6.714843-15 15-15 8.28125 0 15 6.714844 15 15v96.398438c0 8.285156-6.71875 15-15 15zm0 0"/></g><path d="m416.667969 150.964844c-8.285157 0-15-6.714844-15-15v-96.398438c0-8.285156 6.714843-15 15-15 8.28125 0 15 6.714844 15 15v96.398438c0 8.285156-6.71875 15-15 15zm0 0" fill="#046eff"/><path d="m336.332031 131.886719c-8.28125 0-15-6.714844-15-15v-96.398438c0-8.285156 6.71875-15 15-15 8.285157 0 15 6.714844 15 15v96.398438c0 8.285156-6.714843 15-15 15zm0 0" fill="#046eff"/><path d="m256 319.199219c-66.191406 0-128.679688-10.414063-175.949219-29.320313-51.621093-20.648437-80.050781-49.796875-80.050781-82.078125v-96.402343c0-8.246094 6.65625-14.945313 14.90625-15h.097656c.503906 0 14.8125.5 15.003906 15.429687.292969 18.546875 23.347657 38.746094 61.667969 53.984375 43.761719 17.402344 102.117188 26.988281 164.324219 26.988281 62.464844 0 120.996094-9.652343 164.808594-27.175781 38.316406-15.328125 61.191406-35.597656 61.191406-54.226562 0-8.28125 6.714844-15 15-15s15 6.71875 15 15v96.402343c0 32.28125-28.429688 61.429688-80.050781 82.078125-47.269531 18.90625-109.757813 29.320313-175.949219 29.320313zm0 0" fill="#8bddff"/><path d="m431.949219 289.878906c51.621093-20.648437 80.050781-49.796875 80.050781-82.078125v-96.402343c0-8.28125-6.714844-15-15-15s-15 6.71875-15 15c0 18.628906-22.875 38.898437-61.191406 54.226562-43.8125 17.523438-102.34375 27.175781-164.808594 27.175781v126.398438c66.191406 0 128.679688-10.414063 175.949219-29.320313zm0 0" fill="#66c4ff"/><path d="m256 383.46875c-8.285156 0-15-6.71875-15-15v-64.269531c0-8.285157 6.714844-15 15-15s15 6.714843 15 15v64.269531c0 8.28125-6.714844 15-15 15zm0 0" fill="#784132"/><path d="m271 368.46875v-64.269531c0-8.285157-6.714844-15-15-15v94.269531c8.285156 0 15-6.71875 15-15zm0 0" fill="#61362b"/><path d="m256 512c-43.707031 0-79.265625-35.558594-79.265625-79.265625 0-43.710937 35.558594-79.269531 79.265625-79.269531s79.265625 35.558594 79.265625 79.269531c0 43.707031-35.558594 79.265625-79.265625 79.265625zm0 0" fill="#ffe43e"/><path d="m256 353.46875v158.53125c43.710938 0 79.269531-35.558594 79.269531-79.269531 0-43.699219-35.558593-79.261719-79.269531-79.261719zm0 0" fill="#ecbd00"/><path d="m256 383.46875c-27.164062 0-49.265625 22.097656-49.265625 49.265625 0 27.164063 22.101563 49.265625 49.265625 49.265625s49.265625-22.101562 49.265625-49.265625c0-27.167969-22.101563-49.265625-49.265625-49.265625zm0 0" fill="#fba300"/><path d="m305.269531 432.730469c0 27.167969-22.097656 49.269531-49.269531 49.269531v-98.53125c27.171875 0 49.269531 22.101562 49.269531 49.261719zm0 0" fill="#ff772c"/><path d="m256 417.734375c8.28125 0 15 6.71875 15 15 0 8.269531-6.71875 15-15 15s-15-6.730469-15-15c0-8.28125 6.71875-15 15-15zm0 0" fill="#ffa" fill-rule="evenodd"/><path d="m271 432.730469c0 8.28125-6.71875 15-15 15v-30c8.28125 0 15 6.71875 15 15zm0 0" fill="#ffe43e" fill-rule="evenodd"/><path d="m256 319.199219c-34.847656 0-63.199219-28.351563-63.199219-63.199219s28.351563-63.199219 63.199219-63.199219 63.199219 28.351563 63.199219 63.199219-28.351563 63.199219-63.199219 63.199219zm0 0" fill="#ffe43e"/><path d="m319.199219 256c0-34.847656-28.351563-63.199219-63.199219-63.199219v126.398438c34.847656 0 63.199219-28.351563 63.199219-63.199219zm0 0" fill="#ecbd00"/><path d="m256 222.800781c-18.308594 0-33.199219 14.894531-33.199219 33.199219s14.894531 33.199219 33.199219 33.199219 33.199219-14.894531 33.199219-33.199219-14.890625-33.199219-33.199219-33.199219zm0 0" fill="#fba300"/><path d="m289.199219 256c0-18.308594-14.894531-33.199219-33.199219-33.199219v66.398438c18.308594 0 33.199219-14.890625 33.199219-33.199219zm0 0" fill="#ff772c"/><path d="m256 126.398438c-8.285156 0-15-6.714844-15-15v-96.398438c0-8.285156 6.714844-15 15-15s15 6.714844 15 15v96.398438c0 8.285156-6.714844 15-15 15zm0 0" fill="#009cff"/><path d="m271 111.398438v-96.398438c0-8.285156-6.714844-15-15-15v126.398438c8.285156 0 15-6.714844 15-15zm0 0" fill="#046eff"/></svg>