<svg id="Capa_1" enable-background="new 0 0 510 510" height="512" viewBox="0 0 510 510" width="512" xmlns="http://www.w3.org/2000/svg" xmlns:xlink="http://www.w3.org/1999/xlink"><linearGradient id="lg1"><stop offset="0" stop-color="#fbc56d"/><stop offset=".593" stop-color="#dc8758"/><stop offset="1" stop-color="#9e5528"/></linearGradient><linearGradient id="SVGID_1_" gradientUnits="userSpaceOnUse" x1="69.573" x2="508.908" xlink:href="#lg1" y1="117.325" y2="117.325"/><linearGradient id="SVGID_2_" gradientUnits="userSpaceOnUse" x1="98" x2="412.554" xlink:href="#lg1" y1="119.825" y2="119.825"/><linearGradient id="lg2"><stop offset="0" stop-color="#01d0fb"/><stop offset=".6075" stop-color="#26a6fe"/><stop offset="1" stop-color="#0182fc"/></linearGradient><linearGradient id="SVGID_3_" gradientUnits="userSpaceOnUse" x1="216.51" x2="459.542" xlink:href="#lg2" y1="281.737" y2="281.737"/><linearGradient id="lg3"><stop offset="0" stop-color="#01bffa"/><stop offset=".2539" stop-color="#1f9efc"/><stop offset=".5724" stop-color="#407afd"/><stop offset=".8326" stop-color="#5464ff"/><stop offset="1" stop-color="#5b5cff"/></linearGradient><linearGradient id="SVGID_4_" gradientUnits="userSpaceOnUse" x1="254.064" x2="554.218" xlink:href="#lg3" y1="281.737" y2="281.737"/><linearGradient id="SVGID_5_" gradientUnits="userSpaceOnUse" x1="1.602" x2="502.582" xlink:href="#lg2" y1="419.778" y2="419.778"/><linearGradient id="SVGID_6_" gradientUnits="userSpaceOnUse" x1="308" x2="505.649" xlink:href="#lg3" y1="419.778" y2="419.778"/><linearGradient id="SVGID_7_" gradientUnits="userSpaceOnUse" x1="92.324" x2="416.085" y1="268.645" y2="268.645"><stop offset="0" stop-color="#f8f6f7"/><stop offset=".1788" stop-color="#f8f6f7"/><stop offset="1" stop-color="#e7e6f5"/></linearGradient><linearGradient id="lg4"><stop offset="0" stop-color="#f8f6f7"/><stop offset="1" stop-color="#d1ceeb"/></linearGradient><linearGradient id="SVGID_8_" gradientUnits="userSpaceOnUse" x1="204.667" x2="375.1" xlink:href="#lg4" y1="268.645" y2="268.645"/><linearGradient id="SVGID_9_" gradientUnits="userSpaceOnUse" x1="102.5" x2="249.501" xlink:href="#lg4" y1="204.374" y2="204.374"/><linearGradient id="SVGID_10_" gradientUnits="userSpaceOnUse" x1="102.5" x2="249.501" xlink:href="#lg4" y1="332.916" y2="332.916"/><g><path d="m353.75 81.08c-6.1 0-12.01.77-17.66 2.22-5.06-18.55-22.01-32.18-42.16-32.18-13.19 0-25.02 5.86-33.03 15.1-12.82-12.43-30.29-20.1-49.56-20.1-34.43 0-63.15 24.44-69.77 56.91-4.06-1.24-8.36-1.91-12.82-1.91-24.14 0-43.71 19.57-43.71 43.71 0 24.13 19.57 43.7 43.71 43.7h286.31c6.17-10.4 9.76-22.52 9.89-35.46.01-.26.01-.52.01-.78 0-39.33-31.88-71.21-71.21-71.21z" fill="url(#SVGID_1_)"/><path d="m353.75 81.08c-6.1 0-12.01.77-17.66 2.22-5.06-18.55-22.01-32.18-42.16-32.18-7.208 0-14.004 1.76-19.999 4.856 6.001 3.1 11.192 7.548 15.172 12.945 5.721 7.759 14.804 12.184 24.444 12.159h.183c39.33 0 71.21 31.88 71.21 71.21 0 .26 0 .52-.01.78-.13 12.94-3.72 25.06-9.89 35.46h40.02c6.17-10.4 9.76-22.52 9.89-35.46.01-.26.01-.52.01-.78 0-39.33-31.88-71.21-71.21-71.21z" fill="url(#SVGID_2_)"/><path d="m488 411.184h-466l29.815-211.332c3.84-27.221 28.588-47.562 57.865-47.562h290.641c29.277 0 54.024 20.341 57.865 47.562z" fill="url(#SVGID_3_)"/><path d="m458.185 199.852c-3.84-27.221-28.588-47.562-57.865-47.562h-40.02c29.277 0 54.024 20.341 57.865 47.562l29.815 211.332h40.02z" fill="url(#SVGID_4_)"/><g><path d="m478.077 463.88h-446.154c-17.631 0-31.923-14.292-31.923-31.923v-24.359c0-17.63 14.292-31.923 31.923-31.923h446.154c17.63 0 31.923 14.292 31.923 31.923v24.359c0 17.631-14.292 31.923-31.923 31.923z" fill="url(#SVGID_5_)"/><path d="m478.077 375.676h-41.025c17.63 0 31.923 14.292 31.923 31.923v24.359c0 17.63-14.292 31.923-31.923 31.923h41.025c17.63 0 31.923-14.292 31.923-31.923v-24.359c0-17.631-14.292-31.923-31.923-31.923z" fill="url(#SVGID_6_)"/></g><g><path d="m386.74 257.222c6.903-8.962 10.709-20.429 9.813-32.809-1.706-23.569-20.756-42.605-44.326-44.292-28.101-2.011-51.522 20.19-51.522 47.862 0 .259.021.513.025.771h-91.46c.004-.258.025-.512.025-.771 0-27.672-23.422-49.874-51.522-47.862-23.571 1.687-42.621 20.723-44.326 44.292-.896 12.379 2.911 23.847 9.813 32.809 5.199 6.75 5.199 16.097 0 22.847-6.903 8.962-10.709 20.429-9.813 32.809 1.706 23.569 20.755 42.605 44.326 44.293 28.101 2.012 51.523-20.19 51.523-47.862 0-.259-.021-.513-.025-.771h91.461c-.004.258-.025.512-.025.771 0 27.672 23.422 49.874 51.523 47.862 23.571-1.687 42.621-20.723 44.326-44.293.896-12.379-2.911-23.847-9.813-32.809-5.202-6.751-5.202-16.097-.003-22.847z" fill="url(#SVGID_7_)"/><path d="m386.74 257.222c6.903-8.962 10.709-20.429 9.813-32.809-1.706-23.57-20.756-42.605-44.326-44.292-8.443-.604-16.457.99-23.547 4.249 15.463 7.141 26.569 22.307 27.853 40.043.896 12.379-2.911 23.847-9.813 32.809-5.199 6.75-5.199 16.097 0 22.847 6.903 8.962 10.709 20.429 9.813 32.809-1.283 17.737-12.39 32.903-27.853 40.043 7.09 3.259 15.104 4.854 23.547 4.249 23.571-1.687 42.621-20.723 44.326-44.292.896-12.379-2.911-23.847-9.813-32.809-5.199-6.751-5.199-16.097 0-22.847z" fill="url(#SVGID_8_)"/><g><path d="m182.16 213.825c2.6 8.428 10.077 14.404 18.893 14.676l8.217.254c.008-.007.012-.011.019-.019.429-28.021-23.161-50.644-51.516-48.615-3.083.221-6.086.745-8.985 1.531 15.9 4.277 28.539 16.51 33.372 32.173z" fill="url(#SVGID_9_)"/><path d="m201.052 308.79c-8.816.272-16.292 6.248-18.893 14.676-4.832 15.662-17.472 27.896-33.373 32.173 2.9.786 5.902 1.31 8.985 1.531 28.355 2.03 51.946-20.594 51.517-48.615-.008-.007-.012-.011-.019-.019z" fill="url(#SVGID_10_)"/></g></g></g></svg>