<svg height="512" viewBox="0 0 512 512" width="512" xmlns="http://www.w3.org/2000/svg"><g id="filled_outline" data-name="filled outline"><path d="m364.1 448a8.082 8.082 0 0 1 -1.394-.122 8 8 0 0 1 -6.5-9.262l10.858-60.692a8 8 0 0 1 15.76 2.767l-10.858 60.691a8 8 0 0 1 -7.866 6.618z" fill="#e4e4e2"/><path d="m332.234 44.785a80 80 0 1 0 -6.5 126.25l33.035 2.248-7.092-32.344a80.03 80.03 0 0 0 -19.443-96.154z" fill="#e4e4e2"/><path d="m384 440h-136l72-32v-56a8 8 0 0 0 -8-8h-48l-7.954-19.885a32 32 0 0 0 -29.711-20.115h-59.965a32 32 0 0 0 -23.917 10.74l-54.453 61.26h-64v112h392v-16a32 32 0 0 0 -32-32z" fill="#e08122"/><g fill="#c16f1d"><path d="m248 448h-16a8 8 0 0 1 -4.438-1.344l-24-16a8 8 0 1 1 8.876-13.312l21.984 14.656h13.578a8 8 0 0 1 0 16z"/><path d="m152 444.2a39.942 39.942 0 0 1 -40-39.978v-52.222a8 8 0 0 1 16 0v52.223a24 24 0 0 0 48 0v-68.223a8 8 0 0 1 16 0v68.223a39.942 39.942 0 0 1 -40 39.977z"/><path d="m232 368a8 8 0 0 1 -8-8v-8a8 8 0 0 1 16 0v8a8 8 0 0 1 -8 8z"/><path d="m288 344v18a14 14 0 0 0 14 14h18v-24a8 8 0 0 0 -8-8z"/></g><path d="m326.538 83.157h-28v-28h-32v28h-28v32h28v28h32v-28h28z" fill="#6b9777"/><path d="m400.181 373.235-26.405 11.609-20.872-19.91 23.519-133.951 47.276 8.301z" fill="#6cbae5"/><path d="m423.7 239.28-8.3 47.28-15.76-2.77-15.76-2.76-15.76-2.77 8.3-47.28 15.76 2.77 15.76 2.76z" fill="#e4e4e2"/><path d="m416.24 189.24-8.3 47.27-15.76-2.76 8.3-47.28z" fill="#cbcbcb"/><path d="m371.908 250.77h48.003v16h-48.003z" fill="#c3c3c3" transform="matrix(.173 -.985 .985 .173 72.582 603.974)"/><path d="m390.046 304.003h16v24h-16z" fill="#3775a4" transform="matrix(.173 -.985 .985 .173 17.969 653.406)"/><path d="m384.513 335.521h16v24h-16z" fill="#3775a4" transform="matrix(.173 -.985 .985 .173 -17.651 674.023)"/><path d="m432.01 200.3a8.082 8.082 0 0 1 -1.394-.122l-47.277-8.3a8 8 0 1 1 2.767-15.758l47.278 8.3a8 8 0 0 1 -1.374 15.88z" fill="#c3c3c3"/><path d="m24 496h392a8 8 0 0 0 8-8v-16a40.045 40.045 0 0 0 -40-40h-10.381l7.3-41.556 22.485-9.886a8 8 0 0 0 4.661-5.94l23.517-133.951a8 8 0 0 0 -6.5-9.263l-15.759-2.766 5.534-31.518 15.758 2.766a7.992 7.992 0 0 0 9.264-6.5 8 8 0 0 0 -6.5-9.263l-47.278-8.3a8 8 0 0 0 -2.767 15.759l15.759 2.767-5.534 31.518-15.752-2.767a8 8 0 0 0 -9.264 6.5l-23.519 133.951a8 8 0 0 0 2.359 7.172l17.773 16.954-7.782 44.323h-71.674l37.552-16.689a8 8 0 0 0 4.748-7.311v-56a16.019 16.019 0 0 0 -16-16h-42.584l-5.942-14.855a39.809 39.809 0 0 0 -37.139-25.145h-59.965a40.034 40.034 0 0 0 -29.9 13.425l-52.063 58.575h-60.407a8 8 0 0 0 -8 8v112a8 8 0 0 0 8 8zm382.558-251.6 7.879 1.384-5.537 31.516-7.879-1.383zm-23.639-4.15 7.879 1.383-5.534 31.519-7.879-1.384zm-21.395 121.85 13.094-74.578 15.754 2.766h.01l15.754 2.766-2.766 15.759-15.76-2.767-2.767 15.759 15.76 2.767-2.767 15.759-15.759-2.767-2.767 15.759 15.759 2.767-2.026 11.541-17.605 7.74zm-65.524-10.1h16v16h-10a6.006 6.006 0 0 1 -6-6zm-264 32h56a8 8 0 0 0 5.979-2.685l18.021-20.273v43.181a40 40 0 1 0 80 0v-68.223a8 8 0 0 0 -16 0v68.223a24 24 0 0 1 -48 0v-60.223a8.312 8.312 0 0 0 -.053-.9l20.486-23.047a24.016 24.016 0 0 1 17.937-8.053h59.965a23.884 23.884 0 0 1 22.283 15.087l7.954 19.884a8 8 0 0 0 7.428 5.029h16v10a22.025 22.025 0 0 0 22 22h10v18.8l-65.7 29.2h-11.88l-21.984-14.656a8 8 0 1 0 -8.876 13.312l24 16a8 8 0 0 0 4.44 1.344h152a24.027 24.027 0 0 1 24 24v8h-376z"/><path d="m232 368a8 8 0 0 0 8-8v-8a8 8 0 0 0 -16 0v8a8 8 0 0 0 8 8z"/><path d="m326.538 75.157h-20v-20a8 8 0 0 0 -8-8h-32a8 8 0 0 0 -8 8v20h-20a8 8 0 0 0 -8 8v32a8 8 0 0 0 8 8h20v20a8 8 0 0 0 8 8h32a8 8 0 0 0 8-8v-20h20a8 8 0 0 0 8-8v-32a8 8 0 0 0 -8-8zm-8 32h-20a8 8 0 0 0 -8 8v20h-16v-20a8 8 0 0 0 -8-8h-20v-16h20a8 8 0 0 0 8-8v-20h16v20a8 8 0 0 0 8 8h20z"/><path d="m337.458 38.725a88.023 88.023 0 1 0 -9.527 140.475l30.3 2.061a8 8 0 0 0 8.358-9.7l-6.507-29.661a87.925 87.925 0 0 0 -22.624-103.175zm6.408 103.927 4.808 21.925-22.394-1.523a7.946 7.946 0 0 0 -5.12 1.42 72 72 0 1 1 23.357-27.1 8 8 0 0 0 -.651 5.278z"/></g></svg>