<svg id="Layer_1" enable-background="new 0 0 512.018 512.018" height="512" viewBox="0 0 512.018 512.018" width="512" xmlns="http://www.w3.org/2000/svg"><g><path d="m496.009 64.018v336c0 17.65-14.35 32-32 32h-416c-17.65 0-32-14.35-32-32v-336c0-17.65 14.35-32 32-32h416c17.65 0 32 14.35 32 32z" fill="#e2e0e0"/><path d="m440.009 360.018c0 26.42-7.57 51.11-20.66 72h-32.01c52.645-83.951-.316-195.41-99.33-207.06 81.027-9.569 152 53.968 152 135.06z" fill="#cecccc"/><path d="m496.009 64.018v336c0 17.65-14.35 32-32 32h-48c17.65 0 32-14.35 32-32v-336c0-17.65-14.35-32-32-32h48c17.65 0 32 14.35 32 32z" fill="#cecccc"/><circle cx="256.009" cy="360.018" fill="#a18b76" r="152"/><circle cx="256.009" cy="360.018" fill="#f8e9d2" r="136"/><path d="m392.009 360.018c0 81.257-71.143 144.609-152 135.06 67.48-7.94 120-65.48 120-135.06s-52.52-127.12-120-135.06c81.027-9.569 152 53.968 152 135.06z" fill="#e4d5c1"/><path d="m496.009 64.018v56c0 4.42-3.58 8-8 8h-464c-4.42 0-8-3.58-8-8v-56c0-17.65 14.35-32 32-32h416c17.65 0 32 14.35 32 32z" fill="#f79caf"/><path d="m496.009 64.018v56c0 4.42-3.58 8-8 8h-48c4.42 0 8-3.58 8-8v-56c0-17.65-14.35-32-32-32h48c17.65 0 32 14.35 32 32z" fill="#e3889b"/><path d="m256.009 256.018c-4.418 0-8-3.582-8-8v-8c0-4.418 3.582-8 8-8s8 3.582 8 8v8c0 4.418-3.582 8-8 8z" fill="#a18b76"/><path d="m256.009 488.018c-4.418 0-8-3.582-8-8v-8c0-4.418 3.582-8 8-8s8 3.582 8 8v8c0 4.418-3.582 8-8 8z" fill="#a18b76"/><path d="m376.009 368.018h-8c-4.418 0-8-3.582-8-8s3.582-8 8-8h8c4.418 0 8 3.582 8 8s-3.582 8-8 8z" fill="#a18b76"/><path d="m144.009 368.018h-8c-4.418 0-8-3.582-8-8s3.582-8 8-8h8c4.418 0 8 3.582 8 8s-3.582 8-8 8z" fill="#a18b76"/><path d="m136.009 24.018v40c0 13.23-10.77 24-24 24s-24-10.77-24-24v-40c0-13.23 10.77-24 24-24s24 10.77 24 24z" fill="#f3d4b7"/><path d="m136.009 24.018v40c0 18.576-20.252 29.96-36 20.77 7.17-4.15 12-11.91 12-20.77v-40c0-8.86-4.83-16.62-12-20.77 15.754-9.194 36 2.199 36 20.77z" fill="#e1c3a7"/><path d="m424.009 24.018v40c0 13.23-10.77 24-24 24s-24-10.77-24-24v-40c0-13.23 10.77-24 24-24s24 10.77 24 24z" fill="#f3d4b7"/><g fill="#b59f89"><circle cx="196.009" cy="256.095" r="8"/><circle cx="316.009" cy="463.941" r="8"/><circle cx="316.009" cy="256.095" r="8"/><circle cx="196.009" cy="463.941" r="8"/><circle cx="359.932" cy="300.018" r="8"/><circle cx="152.086" cy="420.018" r="8"/><circle cx="359.932" cy="420.018" r="8"/><circle cx="152.086" cy="300.018" r="8"/></g><path d="m256.009 360.018c-4.418 0-8-3.582-8-8v-72c0-4.418 3.582-8 8-8s8 3.582 8 8v72c0 4.418-3.582 8-8 8z" fill="#f79caf"/><path d="m192.015 416.018c-7.654 0-10.957-9.787-4.806-14.4l64-48c3.535-2.651 8.549-1.934 11.2 1.6s1.935 8.549-1.6 11.2l-64 48c-1.439 1.079-3.124 1.6-4.794 1.6z" fill="#f79caf"/><path d="m256.009 376.018c-8.822 0-16-7.178-16-16s7.178-16 16-16 16 7.178 16 16-7.178 16-16 16zm-.001-16.01v.01c.001-.007 0-.01 0-.01z" fill="#e3889b"/><path d="m424.009 24.018v40c0 18.576-20.252 29.96-36 20.77 7.17-4.15 12-11.91 12-20.77v-40c0-8.86-4.83-16.62-12-20.77 15.754-9.194 36 2.199 36 20.77z" fill="#e1c3a7"/></g></svg>